<?xml version="1.0" encoding="utf-8"?><svg viewBox="0 0 625 300" xmlns="http://www.w3.org/2000/svg" xmlns:xlink="http://www.w3.org/1999/xlink"><style>:root>svg{display:none}:root>svg:target{display:block}</style><svg fill="none" viewBox="0 0 255 151" id="about" xmlns="http://www.w3.org/2000/svg"><g stroke="#705A66" stroke-width="3" stroke-linecap="round"><path d="M118.376 6.181c-.922-6.454-3.798-5.165-8.067-1.684-13.02 10.617-20.805 25.68-28.986 40.067-10.74 18.886-19.706 38.66-29.962 57.797-7.183 13.402-15.903 28.796-29.164 37.142-7.73 4.865-17.456 2.597-19.591-7.18-2.747-12.577 4.256-24.962 12.676-33.685C27.56 85.917 42.302 81.286 58.718 76.21c5.33-1.648 12.561-2.987 16.577-7.002"/><path d="M99.229 25.329c-2.277.569-5.26 6.35-6.205 7.889-6.77 11.02-11.888 23.25-16.976 35.103-10.792 25.142-19.287 51.045-26.283 77.476M76.093 113.884c18.778-10.898 36.625-24.575 51.857-40.111 4.215-4.3 14.537-13.185 14.537-19.99 0-6.904-14.226 5.718-14.715 6.161-18.689 16.959-36.084 38.617-43.258 63.248-.629 2.157-2.824 11.511 2.66 7.978 5.494-3.54 10.273-9.715 13.296-15.424 5.916-11.174-8.451-4.048-12.189-.31-1.316 1.316-3.628 4.427-1.285 6.072 3.433 2.411 9.772-1.177 12.809-2.571 6.716-3.081 13.527-6.063 20.078-9.485 1.95-1.019 6.963-4.893 5.895-2.969-1.491 2.684-7.281 10.956-.044 10.327 4.1-.357 7.962-3.322 11.39-5.319 2.95-1.718 10.2-4.614 10.682-8.776.965-8.322-16.212-1.076-18.349 1.596-1.617 2.021-2.02 5.017.31 6.648 3.475 2.433 8.557.292 12.011-1.064 5.321-2.088 10.33-4.962 15.469-7.446 2.298-1.111 6.258-3.636 8.82-1.773 2.676 1.946-1.611 7.781 3.546 6.471 3.672-.932 7.584-2.75 10.903-4.52.995-.531 6.286-5.09 7.535-4.521.729.331-1.044 1.423-.931 2.216.32 2.24 4.707 1.008 5.895.62 11.934-3.891 21.401-16.94 29.075-26.15"/><path d="M232.462 58.038c-.36-1.62-14.964 16.638-16.532 19.28-6.5 10.951-11.966 22.484-16.976 34.173"/><path d="M202.943 70.803c14.394 1.91 28.734 4.156 43.081 6.383M155.075 134.628c3.56-5.502 3.695 3.15 3.546 5.54-.15 2.396-1.24 5.752-.798 8.111.327 1.747 6.577-4.748 6.826-5.053 3.151-3.868 5.853-8.479 10.282-11.08 2.231-1.311 2.172 1.48 2.571 2.925 2.3 8.336 12.341 3.805 16.976.266 2.062-1.575 8.429-10.485 9.883-5.674 2.561 8.47 14.227 2.78 17.995-1.418 7.697-8.574-5.03-11.761-5.762-3.989-1.226 13.029 31.584.829 36.611-.798"/></g></svg><svg fill="none" viewBox="0 0 166 55" id="advantages-1" xmlns="http://www.w3.org/2000/svg"><path d="M164.211 53.054c-2.684-28.042-31.788-38.3-56.661-38.043-11.605.12-22.5 6.195-28.28 16.405-2.177 3.845-3.636 7.99-3.75 12.43-.09 3.54.849 4.763 4.353 5.686 8.708 2.291 18.392 2.102 22.997-7.045 8.211-16.311-14.463-28.343-26.318-33.061C66.56 5.448 56.29 3.608 45.605 2.859c-8.236-.578-17.21-1.14-25.01 2.138C13.05 8.17 4.98 15.877 2.077 23.617" stroke="#705A66" stroke-width="3" stroke-linecap="round"/></svg><svg fill="none" viewBox="0 0 28 90" id="advantages-2" xmlns="http://www.w3.org/2000/svg"><path d="M18.19 2.283c-3.661 6.084-7.496 12.095-10.898 18.331-4.883 8.953-6.275 18.744-4.256 28.774C5.934 63.79 13.424 79.822 26.362 87.584" stroke="#705A66" stroke-width="3" stroke-linecap="round"/></svg><svg fill="none" viewBox="0 0 170 101" id="advantages-3" xmlns="http://www.w3.org/2000/svg"><path d="M10.726 2.718C5.046 13.322-.505 28.5 3.502 40.523c7.346 22.037 29.316 32.113 51.41 29.738 26.585-2.859 44.768-25.271 49.122-50.567 1.065-6.19 1.506-19.986-8.729-17.94-6.754 1.351-12.57 15.92-14.447 21.19-5.455 15.307-6.302 36.463-1.264 51.952 3.076 9.462 8.908 19.795 19.143 22.755 12.48 3.61 28.367-.802 37.985-9.15 13.808-11.984 22.913-31.03 28.896-47.979 1.722-4.88 1.558-4.891 2.106-8.728.06-.42.121.84.121 1.264" stroke="#705A66" stroke-width="3" stroke-linecap="round"/></svg><svg fill="none" viewBox="0 0 625 300" id="advantages-decor" xmlns="http://www.w3.org/2000/svg"><path d="M115.749 145.829c15.936-12.453 42.798-27.007 49.724-47.784 2.845-8.536-3.174-14.118-11.726-12.871-16.173 2.358-26.312 21.972-32.355 35.088-12.739 27.647-21.459 57.322-30.857 86.223-6.993 21.503-14.203 43.53-27.154 62.33-9.172 13.314-27.85 32.509-46.02 29.182-26.253-4.807-13.204-32.523-2.293-45.139 22.098-25.551 52.099-41.099 81.638-56.247" stroke="#F5F7F8" stroke-width="3" stroke-linecap="round"/><path d="M117.336 182.328c-.781-3.906-3.267 7.292-4.408 11.109-1.736 5.81-3.527 12.219-3.527 18.337 0 6.31 5.473-11.4 8.817-16.75 7.674-12.28 13.969-22.758 27.683-26.978m4.76 14.282c-1.519-1.012-4.971 13.047 8.993 5.026 7.165-4.117 19.034-12.222 21.423-20.718 2.676-9.513-11.547-2.432-14.458-.794-4.986 2.804-15.362 10.607-11.461 17.809 4.476 8.264 20.191 1.606 25.478-1.675 7.775-4.826 18.879-13.799 23.275-22.041 0 0-5.276 3.336-6.259 6.612-5.318 17.725 11.991 4.681 18.073-.088 1.018-.798 14.959-11.622 15.164-10.05.284 2.177-4.007 7.55-1.764 9.345 7.029 5.623 29.422-14.581 35.089-17.28.469-.223 1.64 4.153 2.997 4.585 10.239 3.257 27.742-5.925 37.381-8.817m70.929-39.092c-11.446 6.469-29.245 17.393-41.612 5.818-26.699-24.987 21.129-72.88 41.083-84.282 6.665-3.809 21.23-9.912 27.331-1.411 4.147 5.779 1.449 16.028.352 21.952-2.866 15.476-6.857 30.838-11.284 45.933-6.591 22.469-14.87 44.608-25.479 65.504-6.156 12.125-19.993 40.682-31.915 16.839-17.761-35.522 31.058-71.343 61.096-80.227 27.658-8.18 5.793 26.352-1.763 36.146-1.385 1.795 4.198-12.917 4.761-14.106 4.546-9.597 9.163-23.535 17.985-30.24 7.691-5.845 19.535-5.612 18.161 5.378m14.283-6.348c-3.415 1.438-9.743 17.005-6.701 16.751 6.475-.539 17.196-19.18 19.572-23.98 6.07-12.257-2.608-12.423-9.698-4.408-3.023 3.418-15.457 27.107-.705 21.512 6.256-2.373 16.029-20.692 14.106-14.283-4.168 13.893 19.872-7.826 21.512-9.345 7.902-7.32 5.466-10.448 5.466-2.468 0 7.953 3.646 4.432 7.493.97 5.43-4.887 18.082-21.722 16.31-14.635-1.871 7.485.901 7.232 6.524 2.733 6.989-5.592 12.803-12.607 20.189-17.72 1.555-1.077-.711 6.24 5.026 3.261 9.303-4.83 15.534-14.203 24.861-18.867 2.925-1.462-7.048 12.743-.44 10.05 12.944-5.273 22.223-17.208 32.531-26.095C609.154 5.627 617.464 4.246 623.08 2M167.893 286.677c-4.725 4.724.737-1.356 1.94-2.822 5.64-6.874 11.258-14.947 18.337-20.453 3.419-2.659-9.008 20.387-2.468 19.66 5.3-.589 17.472-15.916 20.63-14.194 4.973 2.712 16.94-10.593 20.277-13.93m17.456-7.934c-.248 3.217-1.011 6.353-1.587 9.521m3.174-28.564c-1.933-.322 4.281-1.507 4.761-1.587m34.912-33.325c-.708-3.187-2.79 5.915-3.879 8.992-4.472 12.626-8.661 25.383-13.401 37.91-3.472 9.175-5.589 17.922-2.469 3.879.829-3.731 3.336-18.608-1.498-20.542-.05-.02 3.834-1.703 4.496-2.028 6.613-3.246 13.282-6.484 19.131-11.02 9.809-7.607 21.774-22.072 22.305-35.353.167-4.18-3.62 7.554-5.113 11.461-5.604 14.664-10.141 29.689-15.517 44.434-.094.259-7.2 21.105-5.554 20.718 3.656-.86 4.836-5.784 6.788-8.993 5.098-8.375 9.24-17.628 15.164-25.478 5.536-7.336 2.996 1.674 6.965 2.468 6.826 1.365 16.906-8.92 21.776-12.166M431.852 127c-19.17 13.506-29.592 35.912-39.408 56.424-9.073 18.958-18.681 37.888-30.416 55.365-8.525 12.697-19.408 26.929-35.882 28.741-15.347 1.688-23.205-14.218-11.549-24.156 12.093-10.311 30.28-19.659 45.844-11.814 10.703 5.395 14.199 10.013 25.391 3.174 10.458-6.392 18.903-16.149 26.624-25.479 4.692-5.669.159 5.138 5.378 6.965 9.098 3.184 21.046-17.203 23.892-23.01 11.509-23.478-27.053 15.084-15.164 17.544 6.24 1.291 17.927-15.061 21.512-19.219 6.827-7.92-.739-.563 5.466.264 7.157.954 15.088-7.833 19.219-12.431 6.595-7.34 7.133-12.843 4.232-1.41-2.644 10.419 2.066 7.733 6.348.705a360.958 360.958 0 0 0 9.698-16.927c2.165-4.031 1.586-2.646 2.292.176m26.977-9.521c8.216-9.243-4.608-3.585-7.229 2.821-2.659 6.499 8.451 3.414 10.579 2.733 12.867-4.117 22.655-11.841 33.149-19.837" stroke="#F5F7F8" stroke-width="3" stroke-linecap="round"/></svg><svg fill="none" viewBox="0 0 24 14" id="arrow-bottom" xmlns="http://www.w3.org/2000/svg"><path d="M10.94 13.06a1.5 1.5 0 0 0 2.12 0l9.547-9.545a1.5 1.5 0 1 0-2.122-2.122L12 9.88 3.515 1.393a1.5 1.5 0 1 0-2.122 2.122l9.546 9.546zM10.5 10v2h3v-2h-3z" fill="#705A66"/></svg><svg fill="none" viewBox="0 0 42 8" id="arrow-left" xmlns="http://www.w3.org/2000/svg"><path d="M.646 4.354a.5.5 0 0 1 0-.708L3.828.464a.5.5 0 1 1 .708.708L1.707 4l2.829 2.828a.5.5 0 1 1-.708.708L.646 4.354zM42 4.5H1v-1h41v1z" fill="#705A66"/></svg><svg fill="none" viewBox="0 0 42 8" id="arrow-right" xmlns="http://www.w3.org/2000/svg"><path d="M41.354 4.354a.5.5 0 0 0 0-.708L38.172.464a.5.5 0 1 0-.707.708L40.293 4l-2.828 2.828a.5.5 0 1 0 .707.708l3.182-3.182zM0 4.5h41v-1H0v1z" fill="#705A66"/></svg><svg fill="none" viewBox="0 0 67 67" id="btn-arrow" xmlns="http://www.w3.org/2000/svg"><circle cx="33.5" cy="33.5" r="33.5" fill="#705A66"/><path d="M54.354 34.354a.5.5 0 0 0 0-.708l-3.182-3.181a.5.5 0 1 0-.707.707L53.293 34l-2.828 2.828a.5.5 0 1 0 .707.707l3.182-3.181zM13 34.5h41v-1H13v1z" fill="#F5EEE0"/></svg><svg fill="none" viewBox="0 0 30 30" id="cart" xmlns="http://www.w3.org/2000/svg"><g clip-path="url(#ja)"><path d="M8.75 22.5A2.497 2.497 0 0 0 6.263 25c0 1.375 1.112 2.5 2.487 2.5s2.5-1.125 2.5-2.5-1.125-2.5-2.5-2.5zm-7.5-20V5h2.5l4.5 9.488-1.688 3.062c-.2.35-.312.762-.312 1.2 0 1.375 1.125 2.5 2.5 2.5h15v-2.5H9.275a.31.31 0 0 1-.313-.313l.038-.15 1.125-2.037h9.313c.937 0 1.762-.512 2.187-1.287L26.1 6.85A1.254 1.254 0 0 0 25 5H6.512L5.338 2.5H1.25zm20 20a2.497 2.497 0 0 0-2.488 2.5c0 1.375 1.113 2.5 2.488 2.5s2.5-1.125 2.5-2.5-1.125-2.5-2.5-2.5z" fill="#705A66"/></g><defs><clipPath id="ja"><path fill="#fff" d="M0 0h30v30H0z"/></clipPath></defs></svg><svg fill="none" viewBox="0 0 80 79" id="cash" xmlns="http://www.w3.org/2000/svg"><g clip-path="url(#ka)"><path d="M19.414 5.835a1.654 1.654 0 0 0-1.68 1.653v3.75l-4.85 4.85V5.459a4.499 4.499 0 0 1 1.309-3.178 4.557 4.557 0 0 1 3.17-1.302h58.158a4.557 4.557 0 0 1 3.17 1.302 4.629 4.629 0 0 1 1.302 3.164v47.774c0 1.191-.292 2.565-1.302 3.17a4.505 4.505 0 0 1-3.164 1.302h-35.37a14.324 14.324 0 0 0-1.055-3.327l1.562-1.556H73.51a1.654 1.654 0 0 0 1.64-1.647V7.488a1.654 1.654 0 0 0-1.653-1.653h-8.984v17.207l-9.492-4.746-9.447 4.746V5.835h-26.16zM6.081 51.564 4.01 63.283a.918.918 0 0 1-.196.416 4.557 4.557 0 0 0-1.048 2.136 1.185 1.185 0 0 0 .325 1.185l7.507 7.526a3.43 3.43 0 0 0 1.823.93 4.602 4.602 0 0 0 2.441.072h.059l1.413-.351c2.168-.528 4.056-.996 5.813-2.604l2.253-2.35a.745.745 0 0 1 .091-.111c.033 0 .254-.254.554-.534 1.536-1.51 3.45-3.373 2.285-5l-.905-.905c-.436.423-.899.833-1.341 1.237-.443.403-.788.69-1.14 1.041a.953.953 0 0 1-1.347-1.347c.345-.352.78-.736 1.224-1.133 1.53-1.341 3.255-2.884 2.337-4.232l-.892-.892-.13-.162c-.515.527-1.081 1.028-1.634 1.517-.404.358-.782.69-1.133 1.041a.957.957 0 0 1-1.63-.674.943.943 0 0 1 .282-.673c.345-.352.781-.736 1.224-1.127 1.53-1.347 3.255-2.89 2.337-4.238l-.892-.892a1.154 1.154 0 0 1-.156-.208l-2.604 2.604a.953.953 0 0 1-1.348-1.348l4.916-4.915c1.178-1.179 1.445-2.403 1.139-3.334-.11-.338 0-.345-.247-.585a2.17 2.17 0 0 0-.41-.32c-.072 0-.124-.038-.196-.11a1.807 1.807 0 0 0-.26-.104c-.814-.274-1.589.208-2.656 1.113l-.046.04a5.151 5.151 0 0 0-.352.318L11.243 56.538a.957.957 0 0 1-1.627-.605.944.944 0 0 1 .189-.639l-3.724-3.73zm6.159.703.332-.325 6.725-6.732a6.562 6.562 0 1 1 7.344-1.354l-.065.065c.053.044.103.092.15.143.207.197.392.415.553.651l8.346-8.314a3.307 3.307 0 0 1 0-4.655l-6.217-6.217a3.288 3.288 0 0 1-4.649 0L7.461 42.827a3.307 3.307 0 0 1 0 4.655l4.779 4.785zm14.674-2.214a6.82 6.82 0 0 1-.794.925l-.97.977c.075.043.145.096.208.156l.931.937c.05.052.096.11.137.17a3.21 3.21 0 0 1 .17 3.906.95.95 0 0 1 .344.221l.931.931c.051.054.097.113.137.176a3.255 3.255 0 0 1 0 4.134.771.771 0 0 1 .117.098l.931.93c.05.056.095.115.137.177 2.168 2.962-.417 5.475-2.494 7.506l-.534.534-2.31 2.428-.079.072c-2.116 1.953-4.219 2.435-6.647 3.027l-1.387.345h-.039a8.269 8.269 0 0 1-3.574.254A5.274 5.274 0 0 1 9.297 76.5L1.23 68.393a2.995 2.995 0 0 1-.872-2.91 7.695 7.695 0 0 1 1.595-3.053l2.123-12.22v-.052c0-.15.052-.32.084-.508L0 45.496l27.448-27.448 15.736 15.736L26.908 50.06l.006-.007z" fill="#DDD5C6"/></g><defs><clipPath id="ka"><path fill="#fff" transform="translate(0 .978)" d="M0 0h80v77.044H0z"/></clipPath></defs></svg><svg fill="none" viewBox="0 0 24 24" id="facebook" xmlns="http://www.w3.org/2000/svg"><g clip-path="url(#la)"><path d="m17.214 13.33.622-4.096h-3.89V6.578c0-1.12.542-2.213 2.284-2.213H18V.878S16.395.601 14.86.601c-3.205 0-5.298 1.962-5.298 5.512v3.121H6v4.096h3.562v9.9c.715.113 1.446.171 2.191.171.746 0 1.477-.058 2.192-.171v-9.9h3.269z" fill="#705A66"/></g><defs><clipPath id="la"><rect y=".002" width="24" height="24" rx="6" fill="#fff"/></clipPath></defs></svg><svg fill="none" viewBox="0 0 78 94" id="ig-decor-1" xmlns="http://www.w3.org/2000/svg"><path d="M11.183 1.623C-.244 2.893 1.435 29.421 3.676 36.704c7.13 23.173 31.554 39.825 50.528 18.479 7.436-8.366 5.836-27.475-8.662-24.687-24.78 4.765-7.177 40.212 2.743 50.528 5.399 5.615 20.46 10.298 27.574 4.764 3.054-2.375-7.347 2.496-10.828 4.187-9.282 4.509 5.463-.262 8.518-2.021 5.83-3.356-6.229-8.105-7.796-9.672" stroke="#705A66" stroke-width="3" stroke-linecap="round"/></svg><svg fill="none" viewBox="0 0 34 42" id="ig-decor-2" xmlns="http://www.w3.org/2000/svg"><path d="M2.35 24.017c.38-3.794 4.469-6.032 7.074-8.322 6.134-5.39 12.003-10.254 19.14-14.146M11.088 40.244c-7.272-1.212 13.847-6.241 21.22-6.241" stroke="#705A66" stroke-width="3" stroke-linecap="round"/></svg><svg fill="none" viewBox="0 0 24 24" id="instagram" xmlns="http://www.w3.org/2000/svg"><g fill="#705A66"><path d="M23.933 7.054c-.058-1.278-.264-2.152-.557-2.916a5.852 5.852 0 0 0-1.383-2.123A5.887 5.887 0 0 0 19.871.63c-.763-.298-1.637-.5-2.914-.557-1.282-.058-1.69-.072-4.945-.072-3.26 0-3.668.014-4.945.072C5.79.132 4.917.338 4.153.63a5.824 5.824 0 0 0-2.127 1.384A5.891 5.891 0 0 0 .643 4.138C.35 4.902.144 5.776.086 7.054.03 8.336.014 8.744.014 12.002c0 3.262.015 3.67.072 4.948.058 1.278.264 2.152.557 2.916a5.85 5.85 0 0 0 1.383 2.123 5.784 5.784 0 0 0 2.122 1.383c.763.298 1.637.5 2.914.558 1.282.057 1.69.072 4.945.072 3.26 0 3.668-.015 4.945-.072 1.277-.058 2.151-.264 2.914-.558a5.845 5.845 0 0 0 2.122-1.383 5.891 5.891 0 0 0 1.383-2.123c.298-.764.5-1.638.557-2.916.058-1.283.072-1.691.072-4.948 0-3.257-.01-3.67-.067-4.948zm-2.156 9.8c-.053 1.172-.25 1.81-.413 2.229-.216.557-.48.96-.902 1.383a3.818 3.818 0 0 1-1.383.903c-.422.164-1.061.36-2.228.413-1.262.058-1.642.073-4.849.073-3.207 0-3.586-.015-4.849-.073-1.171-.052-1.81-.25-2.227-.413a3.735 3.735 0 0 1-1.383-.903 3.82 3.82 0 0 1-.902-1.383c-.164-.423-.36-1.062-.413-2.23-.058-1.263-.072-1.642-.072-4.851 0-3.21.014-3.589.072-4.852.052-1.172.25-1.811.413-2.229.216-.557.48-.96.902-1.384a3.817 3.817 0 0 1 1.383-.903c.422-.163 1.06-.36 2.227-.413 1.263-.057 1.642-.072 4.85-.072 3.206 0 3.586.015 4.848.072 1.172.053 1.81.25 2.228.413.557.217.96.48 1.383.903.422.423.677.822.902 1.384.163.423.36 1.062.413 2.229.058 1.263.072 1.643.072 4.852 0 3.209-.019 3.588-.072 4.852z"/><path d="M12.002 5.834a6.164 6.164 0 0 0-6.164 6.168 6.164 6.164 0 1 0 12.328 0 6.16 6.16 0 0 0-6.164-6.168zm0 10.17a4 4 0 0 1-4-4.002 4 4 0 0 1 4-4.002 4 4 0 0 1 4 4.002 4 4 0 0 1-4 4.002zM18.407 7.035a1.44 1.44 0 1 0 0-2.882 1.44 1.44 0 0 0 0 2.882z"/><path d="M0 12.002c0 3.262.014 3.67.072 4.948.058 1.278.264 2.152.557 2.916a5.85 5.85 0 0 0 1.383 2.123 5.845 5.845 0 0 0 2.122 1.383c.763.298 1.637.5 2.914.558 1.282.057 1.69.072 4.945.072 3.26 0 3.668-.015 4.945-.072 1.277-.058 2.15-.264 2.914-.558a5.845 5.845 0 0 0 2.122-1.383 5.851 5.851 0 0 0 1.383-2.123c.297-.764.499-1.638.557-2.916.057-1.283.072-1.691.072-4.948 0-3.262-.015-3.67-.072-4.948-.058-1.278-.265-2.152-.557-2.916a5.852 5.852 0 0 0-1.383-2.123A5.73 5.73 0 0 0 19.857.63c-.764-.298-1.637-.5-2.914-.557-1.282-.058-1.69-.072-4.945-.072-3.26 0-3.668.014-4.945.072C5.776.132 4.902.338 4.138.63a5.847 5.847 0 0 0-2.122 1.384A5.891 5.891 0 0 0 .634 4.138C.336 4.902.13 5.776.072 7.054.014 8.332 0 8.74 0 12.002zm2.165 0c0-3.204.015-3.589.072-4.852.053-1.172.25-1.811.413-2.229.216-.557.48-.96.903-1.384a3.817 3.817 0 0 1 1.382-.903c.423-.163 1.061-.36 2.228-.413 1.263-.057 1.642-.072 4.849-.072 3.207 0 3.586.015 4.849.072 1.171.053 1.81.25 2.228.413.556.217.96.48 1.382.903.423.423.677.822.903 1.384.163.423.36 1.062.413 2.229.057 1.263.072 1.643.072 4.852 0 3.209-.015 3.588-.072 4.852-.053 1.172-.25 1.81-.413 2.229-.216.557-.48.96-.903 1.383a3.818 3.818 0 0 1-1.382.903c-.423.164-1.061.36-2.228.413-1.263.058-1.642.073-4.849.073-3.207 0-3.586-.015-4.849-.073-1.171-.052-1.81-.25-2.228-.413a3.735 3.735 0 0 1-1.382-.903 3.82 3.82 0 0 1-.903-1.383c-.163-.423-.36-1.062-.413-2.23-.062-1.263-.072-1.647-.072-4.851z"/></g></svg><svg fill="none" viewBox="0 0 34 34" id="instagram-light" xmlns="http://www.w3.org/2000/svg"><g fill="#fff"><path d="M33.905 9.99c-.082-1.81-.374-3.048-.79-4.13-.434-1.117-1.013-2.07-1.958-3.009-.945-.939-1.89-1.53-3.006-1.96C27.069.47 25.83.185 24.022.103 22.206.02 21.628 0 17.017 0c-4.618 0-5.196.02-7.005.102-1.81.082-3.047.374-4.129.79-1.122.435-2.074 1.014-3.013 1.96-.938.945-1.53 1.891-1.959 3.007C.496 6.942.204 8.18.122 9.99.041 11.807.02 12.386.02 17c0 4.62.02 5.2.102 7.01.082 1.81.374 3.048.79 4.13.435 1.117 1.013 2.07 1.958 3.008a8.195 8.195 0 0 0 3.006 1.96c1.082.422 2.32.708 4.129.79 1.816.082 2.394.102 7.005.102 4.618 0 5.196-.02 7.006-.102 1.809-.082 3.047-.374 4.128-.79 1.115-.435 2.068-1.014 3.006-1.96.939-.945 1.53-1.891 1.959-3.008.422-1.082.707-2.32.789-4.13.082-1.817.102-2.396.102-7.01s-.014-5.2-.095-7.01zM30.85 23.873c-.075 1.661-.354 2.566-.585 3.158a5.294 5.294 0 0 1-1.279 1.96c-.598.6-1.163.96-1.958 1.28-.599.231-1.503.51-3.156.585-1.789.081-2.326.102-6.87.102-4.543 0-5.08-.02-6.869-.102-1.66-.075-2.564-.354-3.156-.585a5.29 5.29 0 0 1-1.959-1.28c-.598-.599-.959-1.163-1.278-1.96-.232-.599-.51-1.504-.585-3.157-.082-1.79-.102-2.328-.102-6.874 0-4.546.02-5.084.102-6.873.075-1.661.353-2.566.585-3.158.306-.79.68-1.361 1.278-1.96.599-.6 1.163-.96 1.96-1.28.598-.231 1.502-.51 3.155-.585 1.789-.082 2.326-.102 6.87-.102 4.543 0 5.08.02 6.869.102 1.66.075 2.564.354 3.156.585.788.307 1.36.68 1.958 1.28.599.599.96 1.164 1.279 1.96.231.599.51 1.504.585 3.157.082 1.79.102 2.328.102 6.874 0 4.546-.027 5.084-.102 6.873z"/><path d="M17.003 8.262c-4.829 0-8.733 3.913-8.733 8.738a8.732 8.732 0 0 0 8.733 8.738c4.822 0 8.733-3.92 8.733-8.738a8.728 8.728 0 0 0-8.733-8.738zm0 14.407a5.668 5.668 0 0 1-5.666-5.67 5.668 5.668 0 0 1 5.666-5.668A5.668 5.668 0 0 1 22.669 17a5.668 5.668 0 0 1-5.666 5.669zM26.076 9.963a2.041 2.041 0 1 0 0-4.082 2.041 2.041 0 0 0 0 4.082z"/><path d="M0 17c0 4.62.02 5.2.102 7.01.082 1.81.374 3.048.789 4.13.435 1.117 1.013 2.07 1.959 3.008a8.283 8.283 0 0 0 3.006 1.96c1.081.422 2.32.708 4.128.79C11.8 33.98 12.38 34 16.99 34c4.618 0 5.196-.02 7.005-.102 1.81-.082 3.047-.374 4.129-.79 1.115-.435 2.067-1.014 3.006-1.96a8.288 8.288 0 0 0 1.959-3.008c.421-1.082.707-2.32.789-4.13.081-1.817.102-2.396.102-7.01 0-4.62-.02-5.2-.102-7.01-.082-1.81-.374-3.048-.79-4.13-.435-1.117-1.013-2.07-1.958-3.009a8.117 8.117 0 0 0-3-1.96C27.05.47 25.811.185 24.002.103 22.186.02 21.608 0 16.997 0 12.379 0 11.8.02 9.99.102c-1.809.082-3.047.374-4.128.79-1.116.435-2.068 1.014-3.006 1.96-.939.945-1.53 1.891-1.96 3.007C.478 6.942.185 8.18.103 9.99.02 11.8 0 12.38 0 17zm3.067 0c0-4.54.02-5.084.102-6.873.075-1.661.354-2.566.585-3.158.306-.79.68-1.361 1.279-1.96.599-.6 1.163-.96 1.959-1.28.598-.231 1.503-.51 3.156-.585 1.788-.082 2.326-.102 6.869-.102 4.543 0 5.08.02 6.87.102 1.659.075 2.564.354 3.155.585.79.307 1.36.68 1.959 1.28.598.599.959 1.164 1.279 1.96.23.599.51 1.504.585 3.157.081 1.79.102 2.328.102 6.874 0 4.546-.02 5.084-.102 6.873-.075 1.661-.354 2.566-.585 3.158a5.296 5.296 0 0 1-1.28 1.96c-.599.6-1.163.96-1.959 1.28-.598.231-1.503.51-3.156.585-1.788.081-2.326.102-6.869.102-4.543 0-5.08-.02-6.87-.102-1.659-.075-2.563-.354-3.155-.585a5.29 5.29 0 0 1-1.959-1.28c-.599-.599-.959-1.163-1.279-1.96-.23-.599-.51-1.504-.585-3.157-.088-1.79-.102-2.335-.102-6.874z"/></g></svg><svg fill="none" viewBox="0 0 22 17" id="menu-btn" xmlns="http://www.w3.org/2000/svg"><rect width="22" height="3" rx="1.5" fill="#705A66"/><rect y="7" width="22" height="3" rx="1.5" fill="#705A66"/><rect y="14" width="22" height="3" rx="1.5" fill="#705A66"/></svg><svg fill="none" viewBox="0 0 27 25" id="menu-btn-close" xmlns="http://www.w3.org/2000/svg"><path fill-rule="evenodd" clip-rule="evenodd" d="M23.562 24.391a1 1 0 0 0 1.415-1.414L14.908 12.908 26.096 1.721A1 1 0 1 0 24.68.306L13.494 11.494 2.602.602a1 1 0 1 0-1.415 1.414L12.08 12.908l-9.774 9.773a1 1 0 1 0 1.415 1.415l9.773-9.774 10.068 10.069z" fill="#F5F7F8"/></svg><svg fill="none" viewBox="0 0 86 86" id="package" xmlns="http://www.w3.org/2000/svg"><g fill-rule="evenodd" clip-rule="evenodd" fill="#DDD5C6"><path d="M18.813 64.537a2.687 2.687 0 1 0 0 5.375h16.125a2.687 2.687 0 0 0 0-5.375H18.811z"/><path d="M16.125 5.412a2.688 2.688 0 0 0-2.404 1.49l-8.063 16.22c-.17.354-.262.74-.267 1.134a2.76 2.76 0 0 0-.016.063v53.655a2.688 2.688 0 0 0 2.687 2.688h69.875a2.688 2.688 0 0 0 2.688-2.688V24.313a2.687 2.687 0 0 0-.284-1.191L72.28 6.902a2.689 2.689 0 0 0-2.404-1.49h-53.75zm1.659 5.375H34.47L32.712 21.63H12.398l5.386-10.844zm22.124 0h11.564l1.81 10.844H38.156l1.753-10.844zm17.012 0h11.291l5.39 10.844h-14.87l-1.81-10.844zm-46.17 16.22h21.5v26.78a2.687 2.687 0 0 0 4.588 1.9l8.85-8.85 8.85 8.85a2.688 2.688 0 0 0 4.587-1.9v-26.78H75.25v48.28h-64.5v-48.28zm26.875 0H53.75v20.292l-6.162-6.163a2.688 2.688 0 0 0-3.8 0L37.624 47.3V27.006z"/></g></svg><svg fill="none" viewBox="0 0 102 70" id="scooter" xmlns="http://www.w3.org/2000/svg"><g clip-path="url(#ta)"><path fill-rule="evenodd" clip-rule="evenodd" d="m23.94 10.62 3.942.075-8.724 28.461a30.106 30.106 0 0 1 .067.017c-7.654-1.7-13.979.78-19.225 6.678l6.533 3.047 27.75 12.954c.215-1.684.315-3.261.282-4.748.008.214.024.435.024.657h31.85c.009 6.76 5.554 12.23 12.385 12.23 6.832 0 12.377-5.478 12.385-12.23h10.426c.722-14.021-5.969-24.806-17.69-25.841h15.772c1.254 0 2.275-1.019 2.275-2.25v-2.473c0-1.224-1.013-2.218-2.242-2.218h-.199V8.042c0-1.11-.921-2.021-2.042-2.021H68.124c-1.12 0-2.041.912-2.041 2.02v16.93H51.555c-1.535-.05-2.349.64-2.357 2.16v7.935c6.54 5.092 7.537 13.052 1.569 17.537h-9.68c-.248-7.631-4.656-12.28-11.977-17.422l4.366-13.315c1.801-4.14.614-7.278-2.017-9.47.822-2.613 1.411-4.847 1.228-6.67l4.574.936c1.486.304 1.868.83 2.35-.592.082-.246.149-.484.19-.73.374-1.947.141-1.816-1.452-2.12l-4.881-.936h-1.453l-1.793-.994a9.031 9.031 0 0 0-3.32-1.117L25.334.074c-1.61 0-3.42-.444-4.35 1.027-.016.024-.025.115-.033.246-.656.222-1.22.707-1.643 1.372-.523.805-.839 1.906-.839 3.105 0 1.2.324 2.3.839 3.105.58.903 1.42 1.478 2.382 1.503.556.394 1.436.172 2.25.189zm61.666 9.398h10.343v1.799H85.606v-1.8zm-7.86-12.231h7.47v8.033l-3.918-3.006-3.553 3.006V7.787zm7.86 16.913h10.343v1.799H85.606v-1.8zM6.566 48.923l11.04 5.175-3.586-1.627c-2.465.518-4.308 2.686-4.308 5.274 0 2.982 2.44 5.396 5.454 5.396 3.013 0 5.453-2.414 5.453-5.396 0-.92-.232-1.783-.639-2.547l7.537 3.532C27.011 65.04 21.673 70 15.174 70c-6.84 0-12.385-5.487-12.385-12.255-.017-3.466 1.436-6.596 3.777-8.822zM20.976 3.45c.05 1.577.158 3.606.233 4.97a1.936 1.936 0 0 1-.382-.452c-.349-.534-.557-1.298-.557-2.152 0-.855.216-1.619.557-2.152.05-.074.1-.148.15-.214zM73.38 57.761h10.907c-.008 2.974-2.449 5.372-5.454 5.372-3.004 0-5.445-2.398-5.453-5.372z" fill="#DDD5C6"/></g><defs><clipPath id="ta"><path fill="#fff" d="M0 0h102v70H0z"/></clipPath></defs></svg><svg fill="none" viewBox="0 0 44 38" id="stroke-line" xmlns="http://www.w3.org/2000/svg"><path d="M30 5.5C24.666 2.667 12.299.134 5.5 7.5c-6 6.5-7 21 4.5 26 4.72 2.053 22 7.5 28.5-3s5.5-25-2-28.5c-6-2.8-19 4.5-24 7.5" stroke="#705A66" stroke-width="2" stroke-linecap="round"/></svg><svg fill="none" viewBox="0 0 24 21" id="telegram" xmlns="http://www.w3.org/2000/svg"><path d="M9.555 21.001a.75.75 0 0 1-.75-.75v-6.825c0-.215.092-.419.253-.562l3.162-2.802L6.996 13.1a.755.755 0 0 1-.712.023l-5.87-2.925a.75.75 0 0 1 .063-1.37l22.5-8.774A.75.75 0 0 1 23.985.9l-3.913 19.5a.75.75 0 0 1-1.107.503l-6.273-3.573-2.537 3.373a.754.754 0 0 1-.6.298zm2.934-5.4c.127 0 .254.032.37.098l5.945 3.386 3.44-17.136L2.6 9.61l3.992 1.99 11.39-6.622a.747.747 0 0 1 .983.21.749.749 0 0 1-.11 1l-8.55 7.576v4.244l1.585-2.107a.748.748 0 0 1 .599-.3z" fill="#705A66"/></svg><svg fill="none" viewBox="0 0 34 30" id="telegram-light" xmlns="http://www.w3.org/2000/svg"><path d="M13.536 29.752a1.063 1.063 0 0 1-1.063-1.063V19.02c0-.304.13-.593.359-.796l4.479-3.969-7.4 4.302a1.07 1.07 0 0 1-1.01.033L.589 14.446a1.063 1.063 0 0 1 .09-1.94L32.55.073c.359-.144.77-.075 1.07.178.297.249.435.641.358 1.022L28.436 28.9a1.064 1.064 0 0 1-1.568.714L17.98 24.55l-3.594 4.778a1.07 1.07 0 0 1-.85.422zm4.156-7.65c.18 0 .361.045.526.139l8.422 4.796L31.51 2.76 3.683 13.615l5.655 2.819 16.136-9.381a1.058 1.058 0 0 1 1.394.296 1.06 1.06 0 0 1-.156 1.418L14.598 19.499v6.013l2.246-2.985a1.06 1.06 0 0 1 .848-.425z" fill="#F5F7F8"/></svg><svg fill="none" viewBox="0 0 36 36" id="whatsapp-light" xmlns="http://www.w3.org/2000/svg"><g stroke="#F5F7F8" stroke-width="1.421" stroke-linecap="round" stroke-linejoin="round"><path d="M18 12.334a2.429 2.429 0 0 1 2.429 2.428m-2.428-8.905a8.905 8.905 0 0 1 8.904 8.905M18 9.096a5.667 5.667 0 0 1 5.667 5.666M12.334 20.43c2.105 2.105 6.751 4.857 8.905 4.857a4.097 4.097 0 0 0 4.047-3.238v-1.62s-1.991-.97-3.238-1.618c-1.247-.648-3.238 1.619-3.238 1.619A10.558 10.558 0 0 1 14.762 18a10.556 10.556 0 0 1-2.428-4.047s2.267-1.992 1.619-3.238c-.648-1.247-1.62-3.239-1.62-3.239h-1.618a4.096 4.096 0 0 0-3.238 4.048c0 2.153 2.752 6.8 4.857 8.905z"/><path d="M18 1C9.176 1 1 2.425 1 15.571c0 8.42 3.368 12.03 8.095 13.536v4.225a1.619 1.619 0 0 0 2.93 1.101l3.79-4.323H18c8.824 0 17-1.408 17-14.571S26.824 1 18 1z"/></g></svg></svg>